<?xml version="1.0" encoding="UTF-8"?>
<svg id="Camada_1" data-name="Camada 1" xmlns="http://www.w3.org/2000/svg" version="1.1" viewBox="0 0 1920 1080">
  <defs>
    <style>
      .cls-1 {
        fill: #000;
        stroke-width: 0px;
      }
    </style>
  </defs>
  <path class="cls-1" d="M1051.42,550.65l-40.67-76.54-108.34,61.39,46.79,89.93.77,1.48c37.62-20.7,71.52-45.97,101.71-75.78l-.26-.48ZM1060.93,568.53c-30.21,25.68-64.8,50.45-103.92,71.92l162.08,311.55h145.65l-203.81-383.47ZM924.73,507.9c-7.21,4.96-14.65,9.64-22.32,14.06-13.76,7.92-28.32,14.63-43.66,20.13-18.13,6.5-37.36,11.3-57.69,14.4v118.94c1.76-.24,3.52-.48,5.27-.73.32-.05.64-.1.96-.15,47.86-7.07,91.99-21.13,132.44-42.15,3.44-1.79,6.86-3.61,10.24-5.49,37.62-20.7,71.52-45.97,101.71-75.78,11.85-11.7,23.12-24.11,33.84-37.22,3.01-3.68,5.97-7.42,8.89-11.21,19.11-24.83,36.15-51.22,51.12-79.16.07-.13.14-.27.21-.4,1.5-2.78,2.97-5.57,4.41-8.39.05-.09.09-.17.14-.26,15.96-31.02,29.44-63.91,40.42-98.67,22.06-69.82,33.1-142.65,33.1-218.48-98.85,240.01-212.8,355.24-299.08,410.56ZM742.31,560.78l-10.83,119.17c16.85,0,33.3-.74,49.35-2.22v-118.74c-12.45,1.2-25.3,1.79-38.52,1.79ZM655.64,97.34v854.66h125.19V97.34h-125.19Z"/>
  <path class="cls-1" d="M780.83,677.73v24.54c-70.44,12.14-108.43,17.4-125.19,18.29v-7.08c32.1-12.23,125.19-35.75,125.19-35.75Z"/>
  <path class="cls-1" d="M1085.52,513.91c-10.72,13.11-21.99,25.52-33.84,37.22-30.19,29.81-64.09,55.08-101.71,75.78-3.38,1.88-6.8,3.7-10.24,5.49-40.45,21.02-84.58,35.08-132.44,42.15,30.34-4.99,83.5-17.61,141.91-49.12,33.44-18.02,68.62-42.25,102.22-74.78,11.6-11.22,23.01-23.44,34.1-36.74Z"/>
  <path class="cls-1" d="M1150.15,414.75c-1.44,2.82-2.91,5.61-4.41,8.39,1.5-2.86,2.97-5.66,4.41-8.39Z"/>
  <path class="cls-1" d="M858.75,542.09c-26.12,10.3-46.19,14.33-57.69,15.9v-1.5c20.33-3.1,39.56-7.9,57.69-14.4Z"/>
</svg>