<?xml version="1.0" encoding="UTF-8"?>
<svg id="Camada_1" data-name="Camada 1" xmlns="http://www.w3.org/2000/svg" version="1.1" viewBox="0 0 1920 1280">
  <defs>
    <style>
      .cls-1 {
        fill: #000;
        stroke-width: 0px;
      }
    </style>
  </defs>
  <path class="cls-1" d="M146.5,770.2v-416.02h60.94v416.02h-60.94ZM183.42,637.77l5.27-58.01c30.08,0,56.05-6.3,77.93-18.9,21.87-12.6,39.89-29.59,54.05-50.98,14.16-21.39,24.71-45.51,31.64-72.36,6.93-26.85,10.4-54.64,10.4-83.35h60.35c0,36.91-5.37,72.36-16.11,106.35-10.74,33.98-26.37,64.31-46.88,90.97s-45.61,47.71-75.29,63.13c-29.69,15.43-63.48,23.14-101.37,23.14ZM372.09,770.2l-105.47-202.73,52.73-29.88,123.63,232.62h-70.9Z"/>
  <path class="cls-1" d="M584.2,776.06c-32.42,0-57.52-7.81-75.29-23.44-17.77-15.62-26.66-37.69-26.66-66.21,0-32.81,12.25-58.01,36.77-75.59,24.51-17.58,59.13-26.37,103.86-26.37,18.55,0,35.11,1.13,49.66,3.37,14.55,2.25,27.49,5.62,38.82,10.11l-12.89,42.19c-13.09-2.93-25.88-4.64-38.38-5.13-12.5-.49-25.3-.73-38.38-.73-53.91,0-80.86,16.41-80.86,49.22,0,13.67,4.64,24.22,13.92,31.64,9.27,7.42,22.41,11.13,39.4,11.13,19.34,0,35.5-3.32,48.49-9.96,12.99-6.64,22.71-15.13,29.15-25.49,6.45-10.35,9.67-20.99,9.67-31.93v-33.98l18.16,79.69h-24.61l9.96-9.38c0,17.97-4.15,32.96-12.45,44.97-8.3,12.01-19.97,21-35.01,26.95-15.04,5.96-32.81,8.94-53.32,8.94ZM693.77,773.13l-4.1-91.99-8.2-25.78v-80.27c0-20.7-7.28-35.89-21.83-45.56-14.55-9.67-36.18-14.89-64.89-15.67l-74.41-2.05,5.86-55.08,62.7.88c51.37.78,89.5,11.87,114.4,33.25s37.35,52.59,37.35,93.6v129.49l52.73,6.45v49.8l-99.61,2.93Z"/>
  <path class="cls-1" d="M852.56,770.2v-54.49h124.22v54.49h-124.22ZM870.13,514.14v-54.49h162.89v54.49h-162.89ZM999.92,410.43c-11.92,0-22.12-4.25-30.62-12.74s-12.74-18.7-12.74-30.62,4.25-22.36,12.74-30.76c8.5-8.4,18.7-12.6,30.62-12.6s22.36,4.2,30.76,12.6c8.4,8.4,12.6,18.65,12.6,30.76s-4.2,22.12-12.6,30.62c-8.4,8.5-18.65,12.74-30.76,12.74ZM970.92,770.2v-292.97h62.11v292.97h-62.11ZM1027.17,770.2v-54.49h101.37v54.49h-101.37Z"/>
  <path class="cls-1" d="M1204.12,770.2v-439.45h62.11v439.45h-62.11ZM1248.06,652.42v-55.66h35.16c25.78,0,46.97-4.44,63.57-13.33,16.6-8.89,29.64-23.39,39.11-43.51,9.47-20.11,16.45-46.88,20.95-80.27h64.45c-8.2,64.65-26.61,112.94-55.22,144.87-28.62,31.93-68.02,47.9-118.21,47.9h-49.8ZM1414.47,770.2l-88.48-151.17,58.59-24.02,106.64,175.2h-76.76Z"/>
  <path class="cls-1" d="M1648.55,770.2l-123.63-310.55h64.45l101.37,263.67h9.38v46.88h-51.56ZM1530.78,910.82l-2.93-55.66,48.63-5.86c20.51-2.54,38.04-8.11,52.59-16.7,14.55-8.6,27-21.34,37.35-38.23,10.35-16.9,19.43-39.01,27.25-66.36l77.34-268.36h64.45l-89.65,283.01c-11.72,37.11-24.86,66.99-39.4,89.65-14.55,22.65-31.74,39.65-51.56,50.98-19.83,11.32-43.61,18.55-71.34,21.68l-52.73,5.86Z"/>
</svg>