<?xml version="1.0" encoding="UTF-8"?>
<svg id="Camada_1" data-name="Camada 1" xmlns="http://www.w3.org/2000/svg" version="1.1" viewBox="0 0 1920 1280">
  <defs>
    <style>
      .cls-1 {
        fill: #fff;
        stroke-width: 0px;
      }
    </style>
  </defs>
  <path class="cls-1" d="M47.6,801.5v-450.7h66v450.7H47.6ZM87.6,658l5.7-62.8c32.6,0,60.7-6.8,84.4-20.5,23.7-13.6,43.2-32.1,58.6-55.2,15.3-23.2,26.8-49.3,34.3-78.4,7.5-29.1,11.3-59.2,11.3-90.3h65.4c0,40-5.8,78.4-17.5,115.2-11.6,36.8-28.6,69.7-50.8,98.5s-49.4,51.7-81.6,68.4c-32.2,16.7-68.8,25.1-109.8,25.1ZM292,801.5l-114.3-219.6,57.1-32.4,133.9,252h-76.8Z"/>
  <path class="cls-1" d="M521.8,807.8c-35.1,0-62.3-8.5-81.6-25.4-19.3-16.9-28.9-40.8-28.9-71.7s13.3-62.8,39.8-81.9c26.6-19,64.1-28.6,112.5-28.6s38,1.2,53.8,3.6c15.8,2.4,29.8,6.1,42.1,10.9l-14,45.7c-14.2-3.2-28-5-41.6-5.6-13.5-.5-27.4-.8-41.6-.8-58.4,0-87.6,17.8-87.6,53.3s5,26.2,15.1,34.3c10,8,24.3,12.1,42.7,12.1s38.5-3.6,52.5-10.8c14.1-7.2,24.6-16.4,31.6-27.6,7-11.2,10.5-22.7,10.5-34.6v-36.8l19.7,86.3h-26.7l10.8-10.2c0,19.5-4.5,35.7-13.5,48.7-9,13-21.6,22.7-37.9,29.2-16.3,6.5-35.5,9.7-57.8,9.7ZM640.5,804.6l-4.4-99.7-8.9-27.9v-87c0-22.4-7.9-38.9-23.6-49.4-15.8-10.5-39.2-16.1-70.3-17l-80.6-2.2,6.3-59.7,67.9,1c55.6.8,97,12.9,123.9,36,27,23.2,40.5,57,40.5,101.4v140.3l57.1,7v54l-107.9,3.2Z"/>
  <path class="cls-1" d="M812.5,801.5v-59h134.6v59h-134.6ZM831.5,524.1v-59h176.5v59h-176.5ZM972.1,411.7c-12.9,0-24-4.6-33.2-13.8-9.2-9.2-13.8-20.3-13.8-33.2s4.6-24.2,13.8-33.3c9.2-9.1,20.3-13.6,33.2-13.6s24.2,4.6,33.3,13.6c9.1,9.1,13.6,20.2,13.6,33.3s-4.6,24-13.6,33.2c-9.1,9.2-20.2,13.8-33.3,13.8ZM940.7,801.5v-317.4h67.3v317.4h-67.3ZM1001.7,801.5v-59h109.8v59h-109.8Z"/>
  <path class="cls-1" d="M1193.4,801.5v-476.1h67.3v476.1h-67.3ZM1241,673.9v-60.3h38.1c27.9,0,50.9-4.8,68.9-14.4,18-9.6,32.1-25.3,42.4-47.1,10.3-21.8,17.8-50.8,22.7-87h69.8c-8.9,70-28.8,122.4-59.8,156.9-31,34.6-73.7,51.9-128.1,51.9h-54ZM1421.2,801.5l-95.8-163.8,63.5-26,115.5,189.8h-83.2Z"/>
  <path class="cls-1" d="M1674.8,801.5l-133.9-336.4h69.8l109.8,285.6h10.2v50.8h-55.9ZM1547.2,953.8l-3.2-60.3,52.7-6.3c22.2-2.8,41.2-8.8,57-18.1,15.8-9.3,29.2-23.1,40.5-41.4,11.2-18.3,21.1-42.3,29.5-71.9l83.8-290.7h69.8l-97.1,306.6c-12.7,40.2-26.9,72.6-42.7,97.1-15.8,24.5-34.4,43-55.9,55.2-21.5,12.3-47.2,20.1-77.3,23.5l-57.1,6.3Z"/>
</svg>